<?xml version="1.0" standalone="no"?>
<!DOCTYPE svg PUBLIC "-//W3C//DTD SVG 20010904//EN"
 "http://www.w3.org/TR/2001/REC-SVG-20010904/DTD/svg10.dtd">
<svg version="1.0" xmlns="http://www.w3.org/2000/svg"
 width="1024.000000pt" height="1024.000000pt" viewBox="0 0 1024.000000 1024.000000"
 preserveAspectRatio="xMidYMid meet">

<g transform="translate(0.000000,1024.000000) scale(0.100000,-0.100000)"
fill="#00a3e4" stroke="none">
<path d="M4768 8306 c-57 -20 -83 -41 -102 -79 -15 -33 -16 -145 -14 -1384 l3
-1349 27 -41 c48 -73 57 -74 416 -75 273 -1 322 1 348 15 42 22 81 69 94 115
6 25 10 476 10 1347 0 1254 -1 1312 -19 1350 -24 53 -67 91 -116 104 -61 17
-600 14 -647 -3z"/>
<path d="M4211 7814 l-131 -66 0 -921 c0 -895 1 -923 19 -951 11 -16 30 -35
43 -42 35 -20 108 -17 145 6 67 40 62 -35 63 1049 1 541 -1 985 -3 988 -3 2
-64 -26 -136 -63z"/>
<path d="M5840 6900 c0 -947 1 -982 19 -1018 11 -21 31 -43 46 -50 63 -29 167
0 196 56 12 20 14 191 14 941 l0 916 -130 66 c-71 37 -133 67 -137 68 -5 0 -8
-440 -8 -979z"/>
<path d="M6412 6523 c3 -1020 4 -1059 22 -1086 31 -45 65 -57 167 -57 87 0 95
2 121 27 28 26 28 28 28 147 0 136 15 182 76 235 61 55 106 61 421 61 159 0
283 4 283 9 0 5 -14 61 -30 125 -128 494 -413 984 -778 1338 -98 95 -251 224
-300 252 -10 6 -12 -199 -10 -1051z"/>
<path d="M3745 7548 c-64 -46 -224 -190 -300 -270 -304 -317 -527 -673 -675
-1078 -36 -100 -90 -295 -90 -327 l0 -23 283 0 c319 0 348 -5 412 -67 62 -60
75 -101 75 -236 0 -112 1 -119 25 -142 22 -23 31 -25 124 -25 93 0 102 2 131
26 64 54 60 -18 60 1124 0 572 -3 1040 -7 1040 -5 0 -21 -10 -38 -22z"/>
<path d="M7423 5631 l-343 -6 -27 -28 -28 -27 0 -181 0 -181 33 -29 32 -29
366 0 c476 0 447 -15 452 231 4 169 -3 203 -51 233 -33 21 -61 23 -434 17z"/>
<path d="M2328 5601 l-33 -29 0 -182 0 -182 33 -29 32 -29 375 0 374 0 27 23
c35 31 40 70 34 259 -5 149 -5 150 -33 174 l-28 24 -374 0 -375 0 -32 -29z"/>
<path d="M2768 4831 c-100 -111 -148 -253 -148 -436 0 -164 33 -280 118 -415
102 -162 252 -278 406 -315 l49 -11 28 -105 c108 -416 354 -825 659 -1096 278
-247 611 -406 975 -464 115 -19 369 -16 485 4 566 102 1048 425 1365 916 100
155 230 454 279 642 l24 93 50 17 c203 69 367 216 452 403 54 119 74 209 74
336 1 134 -16 209 -70 316 -38 76 -116 170 -133 160 -6 -4 -85 -22 -177 -42
-439 -92 -1032 -168 -1509 -194 -241 -13 -912 -13 -1160 0 -569 30 -1421 147
-1706 236 -11 3 -32 -12 -61 -45z"/>
</g>
</svg>
